<?xml version="1.0" encoding="utf-8"?>
<!-- Generator: Adobe Illustrator 23.0.2, SVG Export Plug-In . SVG Version: 6.00 Build 0)  -->
<svg version="1.1" id="Layer_1" xmlns="http://www.w3.org/2000/svg" xmlns:xlink="http://www.w3.org/1999/xlink" x="0px" y="0px"
	 viewBox="0 0 595.3 841.9" style="enable-background:new 0 0 595.3 841.9;" xml:space="preserve">
<style type="text/css">
	.st0{fill:#3B3C3B;}
	.st1{fill:#FFFFFF;}
</style>
<rect x="74.2" y="223.4" class="st0" width="191.2" height="191.2"/>
<g>
	<g>
		<g>
			<path class="st1" d="M160.8,340.7v-2.6c7.7-0.8,8-1.3,7.9-11.4l0.1-38.4c-7.7,17.2-20.1,44.1-23.4,52.4h-2.4
				c-3.2-8.6-13.8-34.4-21-51.5c-1.6,32.9-1.7,40.4-1.7,42.2c0.1,5.3,2.4,6,8.8,6.7v2.6h-22.3v-2.6c5.5-0.6,7.7-1.7,8.5-6.8
				c0.6-4.1,0.7-7.5,3.1-41.9c0.4-4.9-0.6-6.5-8.8-7.2v-2.6h16.4l20.8,47.7l22.3-47.7h16.5v2.6c-8.1,0.9-9.1,1.8-8.9,8.4l0.4,36.1
				c0.4,10.1,0.7,10.5,8.9,11.4v2.6H160.8z"/>
			<path class="st1" d="M226.1,293.8c-1.6-6.2-4.2-12.3-13.1-12.3c-7.3,0-9.9,5.4-9.9,10.3c0,6.5,4.1,9.8,12,13.8
				c11.3,5.8,16.2,10.2,16.2,19.1c0,9.9-8.6,17.4-20.7,17.4c-5.6,0-10.5-1.6-14.4-3.1c-0.8-2.6-1.9-9-2.5-14.1l2.9-0.8
				c1.9,6.3,6,14.5,15.8,14.5c6.8,0,10.9-4.7,10.9-10.8c0-7.2-3.9-10.2-12.1-14.7c-9.9-5.4-15.4-9.9-15.4-18.6
				c0-8.4,7-16.3,19.4-16.3c5.3,0,10.4,1.4,12.4,1.8c0.4,3.4,0.8,7.2,1.5,13.3L226.1,293.8z"/>
		</g>
	</g>
</g>
</svg>
